<?xml version="1.0" standalone="no"?><svg xmlns="http://www.w3.org/2000/svg" viewBox="0 0 1440 320"><path fill="#2D322D" fill-opacity="1" d="M0,192L18.5,170.7C36.9,149,74,107,111,106.7C147.7,107,185,149,222,186.7C258.5,224,295,256,332,234.7C369.2,213,406,139,443,128C480,117,517,171,554,192C590.8,213,628,203,665,176C701.5,149,738,107,775,106.7C812.3,107,849,149,886,138.7C923.1,128,960,64,997,69.3C1033.8,75,1071,149,1108,197.3C1144.6,245,1182,267,1218,240C1255.4,213,1292,139,1329,96C1366.2,53,1403,43,1422,37.3L1440,32L1440,320L1421.5,320C1403.1,320,1366,320,1329,320C1292.3,320,1255,320,1218,320C1181.5,320,1145,320,1108,320C1070.8,320,1034,320,997,320C960,320,923,320,886,320C849.2,320,812,320,775,320C738.5,320,702,320,665,320C627.7,320,591,320,554,320C516.9,320,480,320,443,320C406.2,320,369,320,332,320C295.4,320,258,320,222,320C184.6,320,148,320,111,320C73.8,320,37,320,18,320L0,320Z"></path></svg>